<svg width="24" height="24" viewBox="0 0 24 24" fill="none" xmlns="http://www.w3.org/2000/svg">
<g filter="url(#filter0_b_203:6945)">
<rect width="24" height="24" rx="12" fill="#00B3FF"/>
<path d="M15.4545 11.2727H12.7273V8.54546C12.7273 8.24436 12.4829 8 12.1818 8H11.8182C11.5171 8 11.2727 8.24436 11.2727 8.54546V11.2727H8.54546C8.24436 11.2727 8 11.5171 8 11.8182V12.1818C8 12.4829 8.24436 12.7273 8.54546 12.7273H11.2727V15.4545C11.2727 15.7556 11.5171 16 11.8182 16H12.1818C12.4829 16 12.7273 15.7556 12.7273 15.4545V12.7273H15.4545C15.7556 12.7273 16 12.4829 16 12.1818V11.8182C16 11.5171 15.7556 11.2727 15.4545 11.2727Z" fill="white"/>
</g>
<defs>
<filter id="filter0_b_203:6945" x="-20" y="-20" width="64" height="64" filterUnits="userSpaceOnUse" color-interpolation-filters="sRGB">
<feFlood flood-opacity="0" result="BackgroundImageFix"/>
<feGaussianBlur in="BackgroundImage" stdDeviation="10"/>
<feComposite in2="SourceAlpha" operator="in" result="effect1_backgroundBlur_203:6945"/>
<feBlend mode="normal" in="SourceGraphic" in2="effect1_backgroundBlur_203:6945" result="shape"/>
</filter>
</defs>
</svg>
