<svg width="18" height="18" viewBox="0 0 18 18" fill="none" xmlns="http://www.w3.org/2000/svg">
<path d="M17.7955 1.57386C17.7909 1.24974 17.5246 0.990743 17.2004 0.995295L13.6796 1.04474C13.1154 1.05267 12.6164 1.32684 12.2998 1.7455C10.8631 1.31372 9.37519 1.1052 7.87335 1.12629L3.11719 1.19309C2.14652 1.20672 1.36788 2.00755 1.38151 2.97822C1.38473 3.20729 1.43227 3.42549 1.51501 3.62532C0.770921 3.83935 0.229486 4.53124 0.240871 5.34191C0.247198 5.7924 0.423363 6.20138 0.707083 6.5092C0.431965 6.82486 0.26751 7.23863 0.273837 7.68912C0.280164 8.13961 0.456329 8.54859 0.740049 8.85641C0.464931 9.17207 0.300475 9.58584 0.306802 10.0363C0.320435 11.007 1.12126 11.7856 2.09193 11.772L5.30391 11.7269C5.25989 11.8354 5.21436 11.9455 5.16794 12.0574C4.82348 12.8881 4.46734 13.747 4.48035 14.6731C4.50313 16.295 5.83401 17.6278 7.45612 17.605C7.73576 17.6011 7.97382 17.4002 8.02483 17.1252L8.30346 15.6226C8.66946 13.6492 9.10109 13.4203 10.707 12.5687C11.1315 12.3437 11.6301 12.0792 12.2116 11.7367C12.4903 12.3596 13.12 12.791 13.8445 12.7808L17.3653 12.7313C17.6894 12.7268 17.9484 12.4604 17.9438 12.1363L17.7955 1.57386ZM10.1573 11.5317C9.28768 11.9928 8.65959 12.3258 8.17188 12.8815C7.67318 13.4499 7.37686 14.1821 7.14939 15.4087L6.97108 16.3707C6.23211 16.1656 5.66534 15.4672 5.65395 14.6566C5.64435 13.9729 5.95333 13.2277 6.25225 12.507C6.36062 12.2455 6.47119 11.9781 6.5692 11.7091L7.37315 11.6978C7.69727 11.6933 7.95626 11.4269 7.95171 11.1028C7.94716 10.7787 7.68079 10.5197 7.35667 10.5242L2.07545 10.5984C1.75194 10.6029 1.48495 10.3434 1.48041 10.0198C1.47586 9.69634 1.73546 9.42935 2.05897 9.4248L3.23257 9.40832C3.55669 9.40377 3.81568 9.13739 3.81113 8.81328C3.80658 8.48916 3.54021 8.23016 3.21609 8.23471L2.04248 8.2512C1.71898 8.25574 1.45198 7.99614 1.44744 7.67264C1.4429 7.34913 1.7025 7.08214 2.026 7.07759L3.19961 7.06111C3.52372 7.05656 3.78272 6.79018 3.77817 6.46607C3.77361 6.14195 3.50724 5.88295 3.18312 5.88751L2.00952 5.90399C1.68601 5.90853 1.41902 5.64893 1.41447 5.32543C1.40993 5.00192 1.66953 4.73493 1.99304 4.73038L3.16664 4.7139C3.49076 4.70935 3.74975 4.44297 3.7452 4.11886C3.74065 3.79474 3.47427 3.53575 3.15016 3.5403C2.82665 3.54484 2.55966 3.28524 2.55511 2.96174C2.55057 2.63823 2.81017 2.37124 3.13368 2.36669L7.88983 2.29989C9.2653 2.28058 10.6281 2.47053 11.9444 2.8641L12.0512 10.4633C11.3009 10.9251 10.6727 11.2584 10.1573 11.5317ZM16.762 11.566L13.828 11.6072C13.5045 11.6117 13.2375 11.3521 13.2329 11.0286L13.1176 2.81339C13.113 2.48989 13.3726 2.22289 13.6961 2.21835L16.6301 2.17714L16.762 11.566Z" fill="black"/>
</svg>
