<svg width="20" height="19" viewBox="0 0 20 19" fill="none" xmlns="http://www.w3.org/2000/svg">
<path d="M0.332031 18.3555C0.332031 18.7115 0.62056 19 0.976562 19H4.84375C5.46344 19 6.01566 18.7066 6.36981 18.2517C7.94086 18.7481 9.57166 19 11.2213 19H16.4453C17.5115 19 18.3789 18.1326 18.3789 17.0664C18.3789 16.8148 18.3301 16.5744 18.2423 16.3537C19.0627 16.1302 19.668 15.3787 19.668 14.4883C19.668 13.9935 19.4808 13.5416 19.174 13.1992C19.481 12.8568 19.668 12.405 19.668 11.9102C19.668 11.4153 19.4808 10.9635 19.174 10.6211C19.481 10.2787 19.668 9.82684 19.668 9.33203C19.668 8.26587 18.8005 7.39844 17.7344 7.39844H14.2064C14.2564 7.27994 14.3081 7.15976 14.3608 7.03757C14.7519 6.13069 15.1562 5.19293 15.1562 4.17578C15.1562 2.39426 13.7153 0.910156 11.9336 0.910156C11.6264 0.910156 11.3619 1.12701 11.3017 1.4283L10.9725 3.07404C10.5401 5.23557 10.0626 5.48029 8.28595 6.39069C7.81631 6.63121 7.2646 6.91403 6.62074 7.28111C6.32433 6.59277 5.63951 6.10938 4.84375 6.10938H0.976562C0.62056 6.10938 0.332031 6.3979 0.332031 6.75391V18.3555ZM8.87358 7.53792C9.83568 7.04495 10.5306 6.68895 11.0747 6.08621C11.6311 5.46971 11.9678 4.67026 12.2366 3.32681L12.4472 2.27307C13.2556 2.50974 13.8672 3.28535 13.8672 4.17578C13.8672 4.92673 13.5164 5.74028 13.177 6.52715C13.054 6.81265 12.9284 7.10454 12.8166 7.39844H11.9336C11.5776 7.39844 11.2891 7.68697 11.2891 8.04297C11.2891 8.39897 11.5776 8.6875 11.9336 8.6875H17.7344C18.0897 8.6875 18.3789 8.9767 18.3789 9.33203C18.3789 9.68736 18.0897 9.97656 17.7344 9.97656H16.4453C16.0893 9.97656 15.8008 10.2651 15.8008 10.6211C15.8008 10.9771 16.0893 11.2656 16.4453 11.2656H17.7344C18.0897 11.2656 18.3789 11.5548 18.3789 11.9102C18.3789 12.2655 18.0897 12.5547 17.7344 12.5547H16.4453C16.0893 12.5547 15.8008 12.8432 15.8008 13.1992C15.8008 13.5552 16.0893 13.8438 16.4453 13.8438H17.7344C18.0897 13.8438 18.3789 14.1329 18.3789 14.4883C18.3789 14.8436 18.0897 15.1328 17.7344 15.1328H16.4453C16.0893 15.1328 15.8008 15.4213 15.8008 15.7773C15.8008 16.1333 16.0893 16.4219 16.4453 16.4219C16.8006 16.4219 17.0898 16.7111 17.0898 17.0664C17.0898 17.4217 16.8006 17.7109 16.4453 17.7109H11.2213C9.71046 17.7109 8.2168 17.4813 6.77734 17.0288V8.68196C7.60835 8.18648 8.30341 7.83014 8.87358 7.53792ZM1.62109 7.39844H4.84375C5.19908 7.39844 5.48828 7.68764 5.48828 8.04297V17.0664C5.48828 17.4217 5.19908 17.7109 4.84375 17.7109H1.62109V7.39844Z" fill="black"/>
</svg>
