<svg width="11" height="11" viewBox="0 0 11 11" fill="none" xmlns="http://www.w3.org/2000/svg">
<path d="M9.96625 8.29866L6.83947 5.17187L9.96625 2.04509C10.3114 1.69989 10.3115 1.13958 9.96625 0.794377L9.54937 0.377498C9.20417 0.0322999 8.64386 0.0322996 8.29866 0.377498L5.17188 3.50428L2.04509 0.377498C1.69989 0.0322996 1.13958 0.0322999 0.794377 0.377498L0.377498 0.794377C0.0322999 1.13958 0.0323 1.69989 0.377498 2.04509L3.50428 5.17187L0.377498 8.29866C0.0322996 8.64386 0.0322999 9.20417 0.377498 9.54937L0.794377 9.96625C1.13958 10.3115 1.69989 10.3115 2.04509 9.96625L5.17188 6.83947L8.29866 9.96625C8.64386 10.3115 9.20417 10.3115 9.54937 9.96625L9.96625 9.54937C10.3115 9.20417 10.3115 8.64386 9.96625 8.29866Z" fill="#003A53"/>
</svg>
