<svg width="20" height="24" viewBox="0 0 20 24" fill="none" xmlns="http://www.w3.org/2000/svg">
<path d="M13.7031 0H4.06368C2.65546 0 1.50927 1.14694 1.50927 2.55436V12H1.25973C0.691364 12 0.230469 12.4604 0.230469 13.0293V19.2717C0.230469 19.8405 0.691364 20.3009 1.25973 20.3009H1.50927V21.4456C1.50927 22.8546 2.65541 24 4.06368 24H17.2161C18.6236 24 19.7697 22.8545 19.7697 21.4456V6.0455L13.7031 0ZM2.85079 14.0985H3.97458L4.35349 14.8885C4.48211 15.1514 4.57868 15.364 4.68142 15.6079H4.69397C4.79671 15.3318 4.88034 15.1388 4.98975 14.8885L5.35577 14.0985H6.47329L5.25293 16.2112L6.53755 18.4275H5.40709L5.01524 17.6437C4.8548 17.3417 4.75206 17.1173 4.62961 16.8663H4.61706C4.52681 17.1173 4.41785 17.3417 4.28285 17.6437L3.92311 18.4275H2.80559L4.0581 16.2371L2.85079 14.0985ZM17.2161 22.4356H4.06368C3.51836 22.4356 3.07439 21.9916 3.07439 21.4456V20.3009H15.3352C15.9036 20.3009 16.3645 19.8405 16.3645 19.2717V13.0293C16.3645 12.4604 15.9036 12 15.3352 12H3.07439V2.55436C3.07439 2.00989 3.51841 1.56587 4.06368 1.56587L13.1178 1.55641V4.90314C13.1178 5.88068 13.911 6.67459 14.8892 6.67459L18.1677 6.66518L18.2046 21.4455C18.2046 21.9916 17.7614 22.4356 17.2161 22.4356ZM9.77068 17.6054V18.4276H7.06639V14.0986H8.04906V17.6054H9.77068ZM11.4295 16.6098C10.7101 16.3596 10.2409 15.9611 10.2409 15.3318C10.2409 14.5927 10.8576 14.028 11.879 14.028C12.3674 14.028 12.7267 14.1307 12.984 14.2461L12.7655 15.0361C12.5922 14.9529 12.2838 14.8305 11.8597 14.8305C11.4357 14.8305 11.2302 15.0236 11.2302 15.248C11.2302 15.5241 11.4742 15.6465 12.0331 15.8582C12.7976 16.1407 13.1574 16.5393 13.1574 17.1496C13.1574 17.8753 12.5984 18.492 11.4103 18.492C10.9156 18.492 10.4272 18.3633 10.1832 18.2283L10.3826 17.4194C10.6457 17.5544 11.0505 17.6886 11.4679 17.6886C11.9174 17.6886 12.1552 17.5026 12.1552 17.2201C12.1552 16.9503 11.9497 16.7957 11.4295 16.6098Z" fill="#39A1FF"/>
</svg>
